<svg id="Layer_1" data-name="Layer 1" xmlns="http://www.w3.org/2000/svg" viewBox="0 0 378.82 91.11"><defs><style>.cls-1{fill:#3b2d38;}.cls-2{fill:#f37436;}</style></defs><title>contabease</title><path class="cls-1" d="M153.43,449.07a24.54,24.54,0,0,1-10.52,2.12c-11,0-18.23-7.49-18.23-18.68s7.72-19.44,19.67-19.44a22.28,22.28,0,0,1,9.23,1.89l-1.51,5.15a15.39,15.39,0,0,0-7.72-1.74c-8.4,0-12.94,6.2-12.94,13.85,0,8.47,5.45,13.69,12.71,13.69a18.9,18.9,0,0,0,8.17-1.82Z" transform="translate(-124.68 -374.5)"/><path class="cls-1" d="M193.89,431.82c0,13.54-9.38,19.44-18.23,19.44-9.91,0-17.55-7.26-17.55-18.84,0-12.26,8-19.44,18.16-19.44C186.78,413,193.89,420.63,193.89,431.82Zm-29,.38c0,8,4.61,14.07,11.12,14.07,6.35,0,11.12-6,11.12-14.22,0-6.2-3.1-14.07-11-14.07S164.84,425.24,164.84,432.2Z" transform="translate(-124.68 -374.5)"/><path class="cls-1" d="M202.28,423.73c0-3.78-.08-6.88-.3-9.91h5.9l.38,6.05h.15a13.47,13.47,0,0,1,12.1-6.88c5.07,0,12.93,3,12.93,15.59v21.86h-6.66V429.33c0-5.9-2.19-10.82-8.47-10.82a9.46,9.46,0,0,0-8.93,6.81,9.6,9.6,0,0,0-.45,3.1v22h-6.66Z" transform="translate(-124.68 -374.5)"/><path class="cls-1" d="M252,403.3v10.52h9.53v5.07H252v19.74c0,4.54,1.29,7.11,5,7.11a14.69,14.69,0,0,0,3.86-.46l.3,5a16.29,16.29,0,0,1-5.9.91c-3.1,0-5.6-1-7.19-2.8-1.89-2-2.57-5.22-2.57-9.53v-20h-5.67v-5.07h5.67V405Z" transform="translate(-124.68 -374.5)"/><path class="cls-1" d="M289.25,450.43l-.53-4.62h-.23a13.64,13.64,0,0,1-11.2,5.45c-7.41,0-11.19-5.22-11.19-10.52,0-8.85,7.87-13.69,22-13.62v-.75c0-3-.83-8.47-8.32-8.47a18.23,18.23,0,0,0-9.53,2.72l-1.51-4.39a22.74,22.74,0,0,1,12-3.25c11.2,0,13.92,7.64,13.92,15v13.69a51.58,51.58,0,0,0,.61,8.78Zm-1-18.68c-7.26-.15-15.51,1.13-15.51,8.25,0,4.31,2.87,6.35,6.28,6.35a9.11,9.11,0,0,0,8.85-6.13,7,7,0,0,0,.38-2.12Z" transform="translate(-124.68 -374.5)"/><path class="cls-1" d="M373.27,433.34c.15,9,5.9,12.71,12.56,12.71A24.08,24.08,0,0,0,396,444.16l1.13,4.76a29.66,29.66,0,0,1-12.18,2.27c-11.27,0-18-7.41-18-18.46S373.42,413,384.08,413c12,0,15.13,10.52,15.13,17.25a25,25,0,0,1-.23,3.1Zm19.52-4.76c.07-4.24-1.74-10.82-9.23-10.82-6.73,0-9.68,6.2-10.21,10.82Z" transform="translate(-124.68 -374.5)"/><path class="cls-1" d="M427.72,450.43l-.53-4.62H427a13.64,13.64,0,0,1-11.2,5.45c-7.41,0-11.19-5.22-11.19-10.52,0-8.85,7.87-13.69,22-13.62v-.75c0-3-.83-8.47-8.32-8.47a18.23,18.23,0,0,0-9.53,2.72l-1.51-4.39a22.74,22.74,0,0,1,12-3.25c11.2,0,13.92,7.64,13.92,15v13.69a51.58,51.58,0,0,0,.61,8.78Zm-1-18.68c-7.26-.15-15.51,1.13-15.51,8.25,0,4.31,2.87,6.35,6.28,6.35a9.11,9.11,0,0,0,8.85-6.13,7,7,0,0,0,.38-2.12Z" transform="translate(-124.68 -374.5)"/><path class="cls-1" d="M443,443.63a17.47,17.47,0,0,0,8.78,2.65c4.84,0,7.11-2.42,7.11-5.45s-1.89-4.92-6.81-6.73c-6.58-2.35-9.68-6-9.68-10.36,0-5.9,4.77-10.75,12.63-10.75a18.28,18.28,0,0,1,9,2.27l-1.67,4.84a14.21,14.21,0,0,0-7.49-2.12c-3.93,0-6.13,2.27-6.13,5,0,3,2.19,4.39,7,6.2,6.36,2.42,9.61,5.6,9.61,11,0,6.43-5,11-13.69,11a20.87,20.87,0,0,1-10.29-2.49Z" transform="translate(-124.68 -374.5)"/><path class="cls-1" d="M477.55,433.34c.15,9,5.9,12.71,12.56,12.71a24.08,24.08,0,0,0,10.14-1.89l1.13,4.76a29.66,29.66,0,0,1-12.18,2.27c-11.27,0-18-7.41-18-18.46S477.7,413,488.37,413c12,0,15.13,10.52,15.13,17.25a25,25,0,0,1-.23,3.1Zm19.52-4.76c.08-4.24-1.74-10.82-9.23-10.82-6.73,0-9.68,6.2-10.21,10.82Z" transform="translate(-124.68 -374.5)"/><path class="cls-2" d="M282.59,375.19a1.68,1.68,0,0,0-2.34-.37c-.36.27-1,5.52-1.07,5.94a1.66,1.66,0,0,0,.29,1.28l18,33.28L294.55,424c-3.44,19.16,11,37.58,30.13,41a35.33,35.33,0,0,0,41-28.5c3.44-19.15-10-39.2-29.13-42.64-9.55-1.72-26.74,2.29-35.43,15l-18.51-33.67Zm16.9,49.48a31.93,31.93,0,1,1,25.78,37.07,32,32,0,0,1-25.78-37.07Zm0,0" transform="translate(-124.68 -374.5)"/><path class="cls-2" d="M356.38,423s-5.8-19.83-23.73-16.37l.65,2.36s17.35-2.94,20.38,14.74Z" transform="translate(-124.68 -374.5)"/></svg>